<svg width="48" height="42" viewBox="0 0 48 42" fill="none" xmlns="http://www.w3.org/2000/svg">
<g filter="url(#filter0_d_13_19)">
<path d="M2.79652 8.54545H7.45739L15.5611 28.3324H15.8594L23.9631 8.54545H28.6239V34H24.9698V15.5803H24.7337L17.2266 33.9627H14.1939L6.68679 15.5678H6.45064V34H2.79652V8.54545Z" fill="white"/>
</g>
<path d="M30.7835 34.0042L32.3716 15.8919L38.7038 16.4471C39.9656 16.5577 40.9871 16.8671 41.7684 17.3753C42.5502 17.8775 43.1095 18.5118 43.4463 19.278C43.7836 20.0384 43.9135 20.8608 43.836 21.7452C43.7677 22.5234 43.5728 23.1539 43.2513 23.6367C42.9356 24.12 42.5408 24.4893 42.0668 24.7448C41.5988 25.0009 41.0991 25.1769 40.5679 25.2729L40.5524 25.4498C41.1035 25.5337 41.6436 25.7772 42.1727 26.18C42.7018 26.5829 43.1261 27.1311 43.4455 27.8245C43.7649 28.5179 43.8828 29.3422 43.799 30.2973C43.7194 31.2053 43.4415 32.0038 42.9652 32.6928C42.4889 33.3818 41.787 33.8996 40.8594 34.246C39.9319 34.5925 38.7548 34.7031 37.328 34.578L30.7835 34.0042ZM33.1474 32.2508L37.4986 32.6324C38.9313 32.758 39.9726 32.57 40.6226 32.0686C41.279 31.5617 41.6421 30.9103 41.7119 30.1143C41.7656 29.5012 41.659 28.9214 41.392 28.3752C41.1256 27.8231 40.7171 27.3654 40.1667 27.0023C39.6168 26.6332 38.9469 26.4141 38.1568 26.3448L33.6995 25.954L33.1474 32.2508ZM33.867 24.0437L37.9352 24.4004C38.5955 24.4583 39.2024 24.3808 39.7558 24.1679C40.315 23.9555 40.7716 23.6272 41.1255 23.1829C41.4852 22.7392 41.693 22.1989 41.7488 21.5621C41.8186 20.7662 41.6007 20.0668 41.0951 19.464C40.59 18.8553 39.736 18.4982 38.5332 18.3927L34.3943 18.0298L33.867 24.0437Z" fill="#0085FF"/>
<defs>
<filter id="filter0_d_13_19" x="2.27521" y="6.98153" width="28.9553" height="28.5824" filterUnits="userSpaceOnUse" color-interpolation-filters="sRGB">
<feFlood flood-opacity="0" result="BackgroundImageFix"/>
<feColorMatrix in="SourceAlpha" type="matrix" values="0 0 0 0 0 0 0 0 0 0 0 0 0 0 0 0 0 0 127 0" result="hardAlpha"/>
<feOffset dx="1.04261"/>
<feGaussianBlur stdDeviation="0.781954"/>
<feComposite in2="hardAlpha" operator="out"/>
<feColorMatrix type="matrix" values="0 0 0 0 0 0 0 0 0 0 0 0 0 0 0 0 0 0 0.45 0"/>
<feBlend mode="normal" in2="BackgroundImageFix" result="effect1_dropShadow_13_19"/>
<feBlend mode="normal" in="SourceGraphic" in2="effect1_dropShadow_13_19" result="shape"/>
</filter>
</defs>
</svg>
